<?xml version="1.0" standalone="no"?>
<svg viewBox="0 0 200 200" xmlns="http://www.w3.org/2000/svg">
  <path fill="#FF0066" d="M21.1,-41C24.3,-34.7,21.7,-22.8,20.3,-15.1C18.9,-7.3,18.8,-3.7,24.9,3.6C31.1,10.8,43.6,21.6,42.5,25.1C41.4,28.6,26.8,24.8,17.4,31.5C8.1,38.2,4,55.4,-0.2,55.7C-4.4,56,-8.8,39.4,-15,30.9C-21.2,22.4,-29.2,21.9,-41,18.1C-52.8,14.3,-68.3,7.2,-67.9,0.3C-67.4,-6.6,-50.9,-13.3,-45.1,-27.4C-39.3,-41.6,-44.2,-63.3,-38.5,-68.1C-32.7,-72.9,-16.4,-60.8,-3.7,-54.4C9,-47.9,17.9,-47.2,21.1,-41Z" transform="translate(100 100)" />
</svg>
